<?xml version="1.0" encoding="UTF-8"?> <svg xmlns="http://www.w3.org/2000/svg" id="Layer_2" data-name="Layer 2" viewBox="0 0 491.76 83.75"> <defs> <style>.cls-1{fill:#009fe3;}.cls-2{fill:#fff;}</style> </defs> <title>LOGO</title> <path class="cls-1" d="M111.06,321.2a2.69,2.69,0,0,1-2.69-2.69V291.95c0-4.32-1.92-7.39-6.91-7.39-4.32,0-7.87,2.88-9.59,5.37v28.59a2.69,2.69,0,0,1-2.69,2.69H82.28a2.69,2.69,0,0,1-2.69-2.69V291.95c0-4.32-1.92-7.39-6.91-7.39-4.22,0-7.77,2.88-9.59,5.47v28.49a2.69,2.69,0,0,1-2.69,2.69H53.6a2.69,2.69,0,0,1-2.69-2.69v-41a2.69,2.69,0,0,1,2.69-2.69H60.4a2.69,2.69,0,0,1,2.69,2.69v3.36c1.92-2.78,8.06-7.2,15.16-7.2,6.81,0,11.13,3.17,12.85,8.44A19.66,19.66,0,0,1,107,273.72c8.54,0,13.62,4.51,13.62,14v30.79A2.69,2.69,0,0,1,118,321.2Z" transform="translate(-50.91 -256.26)"></path> <path class="cls-1" d="M130,331.25a2.68,2.68,0,0,1,3-2.18,9.77,9.77,0,0,0,1.27.09c3.17,0,5.28-.86,6.43-3.36l1.73-3.93-17.33-43.32a2.69,2.69,0,0,1,2.49-3.68h7.22a2.69,2.69,0,0,1,2.52,1.74L148.8,307.1l11.43-30.49a2.69,2.69,0,0,1,2.52-1.74H170a2.69,2.69,0,0,1,2.49,3.69l-20.28,50.22c-3.45,8.73-9.59,11-17.55,11.22-.78,0-2-.08-3.25-.22a2.69,2.69,0,0,1-2.35-3.11Z" transform="translate(-50.91 -256.26)"></path> <path class="cls-2" d="M184.76,318.52v-33h-5a2.69,2.69,0,0,1-2.69-2.69v-5.28a2.69,2.69,0,0,1,2.69-2.69h5v-2.49c0-9.88,6.33-16.12,15.64-16.12a18.48,18.48,0,0,1,10,2.6,2.7,2.7,0,0,1,.78,3.7l-1.81,2.83a2.71,2.71,0,0,1-3.35,1.1,7.73,7.73,0,0,0-3.25-.64c-3.36,0-5.76,2.21-5.76,6.52v2.49h6.71a2.69,2.69,0,0,1,2.69,2.69v5.28a2.69,2.69,0,0,1-2.69,2.69H197v33a2.69,2.69,0,0,1-2.69,2.69h-6.91A2.69,2.69,0,0,1,184.76,318.52Z" transform="translate(-50.91 -256.26)"></path> <path class="cls-2" d="M213.44,318.52v-41a2.69,2.69,0,0,1,2.69-2.69h6.81a2.69,2.69,0,0,1,2.69,2.69v3.65a20.59,20.59,0,0,1,11.57-7.15,2.69,2.69,0,0,1,3.21,2.65v6a2.67,2.67,0,0,1-2.73,2.68H237c-4,0-9.4,2.3-11.42,5.28v27.92a2.69,2.69,0,0,1-2.69,2.69h-6.81A2.69,2.69,0,0,1,213.44,318.52Z" transform="translate(-50.91 -256.26)"></path> <path class="cls-2" d="M241.53,298c0-13.43,9.88-24.27,24-24.27,13.81,0,23.21,10.36,23.21,25.52h0a2.69,2.69,0,0,1-2.69,2.69H254.29c.77,5.85,5.47,10.74,13.33,10.74a21,21,0,0,0,10.35-3,2.67,2.67,0,0,1,3.62.76l2.37,3.47a2.66,2.66,0,0,1-.62,3.68c-4.56,3.16-10.85,4.81-17.06,4.81C252.18,322.35,241.53,312.86,241.53,298Zm24-14.58c-7.58,0-10.84,5.66-11.42,10.26h22.83C276.64,289.26,273.57,283.41,265.51,283.41Z" transform="translate(-50.91 -256.26)"></path> <path class="cls-2" d="M293,298c0-13.43,9.88-24.27,24-24.27,13.81,0,23.21,10.36,23.21,25.52h0a2.69,2.69,0,0,1-2.69,2.69H305.78c.77,5.85,5.47,10.74,13.33,10.74a21,21,0,0,0,10.34-3,2.67,2.67,0,0,1,3.62.76l2.37,3.47a2.66,2.66,0,0,1-.62,3.68c-4.56,3.16-10.85,4.81-17.06,4.81C303.67,322.35,293,312.86,293,298Zm24-14.58c-7.58,0-10.84,5.66-11.42,10.26h22.83C328.13,289.26,325.06,283.41,317,283.41Z" transform="translate(-50.91 -256.26)"></path> <path class="cls-2" d="M379.33,318.52v-3.26a18,18,0,0,1-14.29,7.1c-11.7,0-20.53-8.83-20.53-24.27,0-15.16,8.73-24.37,20.53-24.37a17.84,17.84,0,0,1,14.29,7.1V259.91a2.69,2.69,0,0,1,2.69-2.69h6.91a2.69,2.69,0,0,1,2.69,2.69v58.61a2.69,2.69,0,0,1-2.69,2.69H382A2.69,2.69,0,0,1,379.33,318.52Zm0-12.28v-16.4c-2-3.07-6.43-5.28-10.55-5.28-6.91,0-11.7,5.47-11.7,13.53s4.8,13.43,11.7,13.43C372.9,311.51,377.32,309.31,379.33,306.24Z" transform="translate(-50.91 -256.26)"></path> <path class="cls-2" d="M397.2,298c0-13.14,9.21-24.27,24.46-24.27s24.56,11.13,24.56,24.27-9.21,24.37-24.56,24.37S397.2,311.23,397.2,298Zm36.36,0c0-7.19-4.32-13.43-11.89-13.43s-11.8,6.24-11.8,13.43,4.22,13.53,11.8,13.53S433.55,305.28,433.55,298Z" transform="translate(-50.91 -256.26)"></path> <path class="cls-2" d="M511.95,321.2a2.69,2.69,0,0,1-2.69-2.69V291.95c0-4.32-1.92-7.39-6.91-7.39-4.32,0-7.87,2.88-9.59,5.37v28.59a2.69,2.69,0,0,1-2.69,2.69h-6.91a2.69,2.69,0,0,1-2.69-2.69V291.95c0-4.32-1.92-7.39-6.91-7.39-4.22,0-7.77,2.88-9.59,5.47v28.49a2.69,2.69,0,0,1-2.69,2.69h-6.81a2.69,2.69,0,0,1-2.69-2.69v-41a2.69,2.69,0,0,1,2.69-2.69h6.81a2.69,2.69,0,0,1,2.69,2.69v3.36c1.92-2.78,8.06-7.2,15.16-7.2,6.81,0,11.13,3.17,12.85,8.44a19.66,19.66,0,0,1,15.92-8.44c8.54,0,13.62,4.51,13.62,14v30.79a2.69,2.69,0,0,1-2.69,2.69Z" transform="translate(-50.91 -256.26)"></path> <path class="cls-1" d="M527.13,314.49a7.77,7.77,0,1,1,7.77,7.77A7.86,7.86,0,0,1,527.13,314.49Z" transform="translate(-50.91 -256.26)"></path> </svg> 